<?xml version="1.0" standalone="no"?>
<!DOCTYPE svg PUBLIC "-//W3C//DTD SVG 20010904//EN"
 "http://www.w3.org/TR/2001/REC-SVG-20010904/DTD/svg10.dtd">
<svg version="1.0" xmlns="http://www.w3.org/2000/svg"
 width="450.000000pt" height="338.000000pt" viewBox="0 0 450.000000 338.000000"
 preserveAspectRatio="xMidYMid meet">
<metadata>
Created by potrace 1.10, written by Peter Selinger 2001-2011
</metadata>
<g transform="translate(0.000000,338.000000) scale(0.050000,-0.050000)"
fill="#000000" stroke="none">
<path d="M355 5405 l-355 -6 0 -109 0 -110 4500 0 4500 0 0 120 0 120 -4145
-5 c-2280 -2 -4305 -7 -4500 -10z"/>
<path d="M246 5040 c-87 -8 -102 -15 -86 -40 31 -48 25 -424 -8 -471 -26 -37
-23 -39 80 -39 99 0 106 3 93 40 -29 79 -18 470 14 490 44 27 23 31 -93 20z"/>
<path d="M7390 4901 c-38 -74 -66 -76 -258 -11 -432 145 -832 -72 -832 -450 0
-220 116 -354 490 -569 386 -221 428 -250 481 -340 195 -334 -213 -620 -602
-421 -146 75 -219 175 -266 360 -62 244 -83 192 -83 -200 0 -340 23 -449 60
-289 16 68 91 72 256 15 477 -165 951 66 950 464 -1 271 -58 327 -756 735
-338 198 -404 423 -168 579 288 191 738 -93 738 -466 0 -15 14 -28 30 -28 25
0 30 50 30 329 0 339 -14 399 -70 292z"/>
<path d="M1408 4890 c-74 -74 -34 -148 129 -235 95 -50 83 -123 -22 -131 -64
-5 -78 1 -98 45 -30 65 -57 66 -57 2 0 -60 13 -68 126 -84 203 -27 234 136 49
258 -63 42 -115 83 -115 91 2 77 137 84 170 9 28 -64 50 -56 50 20 0 89 -152
105 -232 25z"/>
<path d="M565 4906 c43 -11 53 -360 11 -402 -19 -19 -7 -24 53 -24 74 0 76 1
43 38 -26 29 -33 67 -28 174 l6 136 140 -173 140 -173 6 203 c3 132 14 209 30
219 14 9 -6 15 -46 15 -44 0 -60 -6 -44 -16 18 -12 24 -57 20 -153 l-6 -136
-117 153 c-104 136 -124 153 -180 151 -35 -2 -47 -7 -28 -12z"/>
<path d="M2060 4868 l0 -52 37 45 c23 29 49 41 70 33 38 -15 51 -374 13 -374
-11 0 -20 -7 -20 -15 0 -9 36 -16 79 -16 52 0 73 7 60 20 -10 10 -19 103 -19
205 0 200 19 229 103 153 35 -31 37 -31 37 10 0 41 -9 43 -180 43 l-180 0 0
-52z"/>
<path d="M2785 4906 c40 -10 53 -360 16 -397 -13 -13 8 -20 60 -20 43 0 79 7
79 16 0 8 -9 15 -20 15 -31 0 -26 374 5 387 14 5 -20 10 -75 9 -55 0 -84 -5
-65 -10z"/>
<path d="M3320 4866 l0 -55 31 45 c17 24 49 44 70 44 43 0 61 -350 20 -391
-13 -13 8 -20 59 -20 51 0 72 7 59 20 -10 10 -19 103 -19 205 0 200 19 229
103 153 35 -31 37 -31 37 10 0 41 -9 43 -180 43 l-180 0 0 -54z"/>
<path d="M3885 4906 c30 -8 35 -33 35 -165 0 -194 40 -261 156 -260 134 1 184
83 184 302 0 72 9 117 25 124 14 5 -11 10 -55 9 -44 0 -64 -5 -45 -10 49 -13
52 -306 4 -355 -46 -45 -163 -41 -188 8 -38 70 -27 337 14 347 19 5 -10 9 -65
9 -55 0 -84 -4 -65 -9z"/>
<path d="M4520 4866 l0 -55 31 45 c75 106 109 60 109 -146 0 -113 -8 -190 -20
-190 -11 0 -20 -7 -20 -15 0 -9 36 -16 79 -16 52 0 73 7 60 20 -10 10 -19 103
-19 205 0 200 19 229 103 153 35 -31 37 -31 37 10 0 41 -9 43 -180 43 l-180 0
0 -54z"/>
<path d="M5208 4902 c-24 -25 -1 -42 57 -42 227 0 231 -13 233 -900 2 -908 -6
-940 -229 -940 -41 0 -69 -9 -65 -21 4 -13 153 -21 426 -21 273 0 422 8 426
21 4 12 -22 21 -59 21 -230 0 -233 11 -234 910 -1 907 4 929 224 930 45 0 73
9 69 21 -7 21 -828 40 -848 21z"/>
<path d="M7808 4902 c-24 -25 2 -38 94 -47 198 -19 188 29 188 -915 0 -944 10
-896 -189 -915 -56 -6 -100 -19 -96 -29 10 -31 855 -32 855 -1 0 14 -25 25
-57 25 -225 0 -223 -9 -223 917 0 942 -4 923 209 923 43 0 71 10 71 25 0 24
-828 40 -852 17z"/>
<path d="M69 4422 c-4 -4 -3 -15 3 -25 18 -29 4828 -22 4828 8 0 23 -4808 41
-4831 17z"/>
<path d="M162 4145 c-90 -72 -58 -171 80 -248 86 -49 110 -89 76 -130 -35 -42
-76 -33 -141 33 -75 75 -77 75 -77 -6 0 -65 1 -65 101 -70 234 -10 288 148 89
265 -71 42 -91 64 -86 97 9 63 68 65 123 5 61 -66 73 -64 73 9 0 45 -9 60 -37
60 -21 0 -64 5 -96 12 -41 8 -73 0 -105 -27z"/>
<path d="M4500 4155 c0 -9 14 -21 30 -28 47 -18 43 -343 -5 -379 -31 -24 -24
-27 54 -27 69 -1 84 4 65 23 -32 32 -32 176 1 176 14 -1 57 -45 95 -100 61
-86 79 -99 140 -99 l70 -1 -62 38 c-34 21 -83 67 -108 101 l-45 64 43 45 c50
53 54 117 9 154 -36 30 -287 59 -287 33z m242 -90 c13 -35 7 -56 -24 -87 -57
-57 -87 -38 -94 60 -7 99 84 120 118 27z"/>
<path d="M619 4131 c14 -17 31 -103 39 -193 16 -186 41 -218 166 -218 117 0
156 52 156 205 0 69 13 149 29 180 l29 55 -74 -1 c-62 0 -69 -4 -43 -25 56
-44 29 -343 -34 -372 -125 -57 -167 -7 -167 199 0 93 8 159 20 159 11 0 20 9
20 20 0 11 -37 20 -82 20 -71 0 -79 -4 -59 -29z"/>
<path d="M1276 4136 c41 -41 32 -356 -11 -388 -31 -23 -22 -27 65 -27 89 0 96
3 64 28 -62 47 -39 163 31 155 60 -7 155 70 155 126 0 74 -92 130 -213 130
-89 0 -110 -5 -91 -24z m200 -40 c58 -58 13 -156 -70 -156 -41 0 -46 9 -46 90
0 95 56 126 116 66z"/>
<path d="M1796 4136 c30 -30 33 -359 4 -388 -14 -14 28 -22 133 -25 107 -3
159 4 170 22 25 39 20 66 -7 39 -13 -13 -63 -24 -110 -24 l-86 0 0 92 0 91 65
-14 c36 -8 72 -24 80 -37 8 -12 14 14 14 58 0 64 -4 73 -21 45 -44 -76 -138
-45 -138 45 l0 80 81 0 c65 0 84 -9 98 -45 17 -41 19 -39 20 20 l1 65 -164 0
c-128 0 -159 -5 -140 -24z"/>
<path d="M2359 4131 c15 -18 22 -94 19 -214 -4 -183 -3 -186 43 -186 44 0 47
7 42 95 -8 121 17 120 111 -6 58 -77 87 -100 129 -100 54 0 53 2 -48 103
l-102 102 53 39 c66 48 70 122 10 165 -61 42 -292 45 -257 2z m189 -23 c64
-25 34 -133 -43 -157 -42 -13 -45 -8 -45 78 0 93 16 107 88 79z"/>
<path d="M2959 4131 c15 -18 22 -94 19 -214 -4 -181 -3 -186 42 -186 45 0 46
5 42 186 -3 120 4 196 19 214 20 24 10 29 -61 29 -71 0 -81 -5 -61 -29z"/>
<path d="M3336 4136 c29 -29 33 -359 4 -388 -13 -13 34 -21 134 -24 106 -3
158 3 169 21 28 43 19 57 -22 36 -105 -57 -181 -28 -181 69 0 93 93 125 142
47 12 -18 17 -5 18 42 0 54 -5 64 -24 45 -60 -60 -136 -29 -136 56 0 91 132
125 178 45 18 -30 21 -27 21 20 l1 55 -164 0 c-128 0 -159 -5 -140 -24z"/>
<path d="M3880 4140 c0 -11 9 -20 20 -20 12 0 20 -62 20 -147 0 -187 42 -253
159 -253 131 0 166 47 177 237 5 90 17 163 27 163 9 0 17 9 17 20 0 11 -27 20
-60 20 -33 0 -60 -9 -60 -20 0 -11 9 -20 20 -20 30 0 25 -286 -5 -325 -43 -56
-126 -64 -173 -17 -57 57 -62 312 -7 354 31 24 25 27 -50 27 -47 1 -85 -8 -85
-19z"/>
<path d="M60 3640 c0 -13 823 -20 2430 -20 1607 0 2430 7 2430 20 0 13 -823
20 -2430 20 -1607 0 -2430 -7 -2430 -20z"/>
<path d="M105 3398 c44 -25 53 -387 10 -405 -14 -5 24 -11 84 -11 85 -2 104 3
85 22 -30 30 -33 368 -3 387 12 7 43 7 70 1 56 -15 77 -336 25 -388 -19 -19
-9 -24 42 -24 55 0 63 5 43 28 -14 17 -21 81 -17 165 l6 136 128 -160 c165
-206 162 -207 162 38 0 149 7 213 25 220 14 5 -11 10 -55 11 -60 1 -72 -4 -48
-18 25 -15 34 -54 36 -164 2 -83 -5 -137 -14 -125 -10 10 -70 84 -133 164
l-116 145 -182 -1 c-134 0 -174 -6 -148 -21z"/>
<path d="M840 3400 c43 -27 43 -373 0 -400 -21 -14 -4 -19 60 -18 50 1 79 6
65 11 -15 6 -25 47 -25 101 l0 90 70 -8 c64 -7 70 -3 70 42 0 39 -5 45 -24 26
-57 -57 -116 -29 -116 56 0 91 87 116 163 47 35 -31 37 -30 37 20 l0 53 -165
0 c-112 -1 -155 -7 -135 -20z"/>
<path d="M1267 3385 c-132 -107 -109 -333 41 -396 219 -91 394 225 210 380
-72 61 -186 68 -251 16z m192 -20 c85 -69 80 -279 -9 -337 -104 -68 -190 12
-190 174 0 168 96 246 199 163z"/>
<path d="M1645 3408 c25 -8 36 -34 39 -94 7 -175 -4 -302 -29 -317 -14 -10 13
-16 65 -15 50 1 79 6 65 11 -30 12 -35 187 -5 187 10 0 53 -45 94 -100 l75
-100 130 2 c72 0 120 6 106 11 -17 7 -25 59 -24 164 l2 153 71 -155 c39 -85
78 -155 85 -155 8 0 47 70 88 155 l73 155 0 -141 c0 -83 -10 -151 -24 -165
-19 -19 -4 -24 65 -22 49 0 78 6 64 11 -43 18 -34 380 10 405 29 17 23 21 -32
21 -64 1 -69 -5 -139 -159 -40 -88 -79 -160 -86 -160 -7 0 -45 72 -86 160 -69
152 -76 160 -137 159 -54 0 -59 -4 -30 -21 41 -23 53 -365 14 -389 -42 -25
-110 13 -173 96 -57 76 -60 86 -30 103 148 81 73 190 -139 202 -81 5 -131 4
-112 -2z m232 -97 c4 -39 -5 -68 -29 -85 -66 -48 -88 -32 -88 65 0 116 104
133 117 20z"/>
<path d="M2810 3325 c-19 -52 -64 -151 -100 -220 l-65 -125 48 0 c30 0 44 8
36 21 -38 62 11 119 101 119 90 0 139 -57 101 -119 -9 -13 14 -21 61 -21 69 0
72 2 43 35 -17 19 -60 118 -96 220 -74 213 -81 218 -129 90z m67 -105 c20 -58
19 -60 -38 -60 -65 0 -70 13 -36 88 27 60 46 53 74 -28z"/>
<path d="M3094 3405 c-5 -8 -3 -32 5 -54 13 -34 15 -34 27 -5 7 20 34 34 63
34 59 0 83 -364 26 -387 -14 -5 16 -10 65 -10 50 0 79 5 65 10 -45 18 -34 387
11 387 20 0 47 -11 60 -24 29 -29 53 -8 37 33 -13 33 -341 48 -359 16z"/>
<path d="M3515 3407 c18 -7 25 -68 25 -207 0 -139 -7 -200 -25 -207 -14 -5 16
-10 65 -10 50 0 79 5 65 10 -43 18 -34 380 10 405 27 16 12 21 -65 20 -55 -1
-89 -6 -75 -11z"/>
<path d="M3778 3362 c-116 -117 -78 -295 84 -385 l83 -47 -1938 -10 c-1271 -7
-1937 -17 -1937 -30 0 -13 841 -22 2475 -24 2168 -4 2475 -1 2475 25 0 25 -73
29 -498 29 -439 0 -500 4 -525 33 -23 29 -23 35 2 43 207 70 141 424 -79 424
-65 0 -96 -13 -142 -58z m219 1 c98 -98 54 -346 -63 -359 -74 -9 -109 23 -135
120 -51 188 85 352 198 239z"/>
<path d="M4185 3398 c29 -16 35 -48 35 -175 0 -224 88 -312 236 -235 73 38 84
65 84 209 0 62 13 138 29 168 l29 55 -73 0 c-65 0 -69 -3 -36 -26 40 -30 40
-313 0 -353 -40 -40 -141 -46 -176 -11 -49 49 -48 339 2 368 27 16 12 21 -65
21 -77 0 -92 -5 -65 -21z"/>
<path d="M4665 3398 c29 -17 35 -50 35 -198 0 -148 -6 -181 -35 -198 -26 -15
11 -21 138 -21 130 -1 175 6 183 27 9 23 -11 26 -107 17 l-119 -11 0 83 c0 88
92 123 156 59 19 -19 24 -10 24 40 0 35 -9 64 -20 64 -11 0 -20 -9 -20 -20 0
-11 -31 -20 -70 -20 -68 0 -70 2 -70 80 l0 80 90 0 c67 0 90 -8 90 -30 0 -16
9 -30 20 -30 11 0 20 23 20 50 0 50 -2 50 -175 49 -129 0 -166 -6 -140 -21z"/>
<path d="M270 2740 c-10 -32 -20 -36 -51 -20 -57 31 -100 -55 -47 -94 32 -24
41 -23 62 6 15 20 37 28 58 20 66 -25 93 73 29 107 -31 17 -41 13 -51 -19z"/>
<path d="M3620 2609 c-24 -63 -25 -89 -3 -89 16 0 63 -233 63 -309 0 -24 -24
-31 -110 -31 -127 0 -121 -12 -139 269 -18 277 -74 258 -66 -23 6 -197 -30
-249 -238 -340 -162 -70 -168 -105 -13 -84 145 20 193 46 238 129 37 69 68 73
68 9 0 -75 55 -102 197 -96 156 7 157 10 111 275 -17 96 -19 158 -7 170 35 35
20 106 -31 139 -49 32 -51 32 -70 -19z"/>
<path d="M4860 2610 c-15 -39 -15 -74 -2 -109 18 -45 62 -262 62 -305 0 -9
-103 -16 -229 -16 -236 0 -319 -17 -364 -76 -49 -65 -33 -104 43 -104 79 0 94
-29 25 -47 -234 -63 -358 15 -277 173 53 105 15 113 -45 9 -94 -164 -92 -234
12 -288 168 -86 479 46 401 171 -21 34 -6 36 240 34 l263 -2 -5 80 c-3 44 -15
133 -26 198 -15 87 -14 132 4 176 22 54 19 64 -28 111 l-52 52 -22 -57z"/>
<path d="M5864 2604 c-14 -40 -12 -66 6 -90 14 -19 31 -82 39 -139 7 -58 18
-125 24 -150 11 -44 7 -45 -133 -45 -130 0 -143 4 -129 35 66 154 -75 261
-191 145 -46 -46 -53 -100 -12 -100 15 0 37 -12 50 -28 34 -40 -13 -52 -209
-52 -203 0 -209 7 -209 234 -1 173 -22 238 -57 172 -36 -67 12 -468 61 -511
53 -46 302 -48 415 -3 72 29 83 29 125 0 32 -23 91 -32 200 -32 l156 0 0 71
c0 39 -10 134 -23 211 -18 106 -17 151 1 191 21 46 18 59 -21 100 -57 60 -69
59 -93 -9z"/>
<path d="M8479 2606 c-15 -37 -15 -67 -1 -95 20 -39 62 -248 62 -305 0 -22
-40 -26 -184 -22 l-184 6 -16 62 c-34 132 -115 131 -193 -1 -41 -70 -44 -71
-172 -71 -72 0 -131 3 -131 8 0 4 13 32 28 62 57 109 -91 204 -192 125 -54
-42 -66 -115 -19 -115 39 0 71 -45 48 -68 -6 -7 -72 -12 -147 -12 l-135 0 42
76 c37 68 39 81 13 135 -44 91 -81 72 -155 -76 l-67 -135 -148 0 -148 0 0 75
c0 79 -54 208 -92 220 -50 15 -48 -113 3 -188 27 -40 49 -80 49 -90 0 -24
-175 -21 -190 3 -25 41 -50 18 -50 -46 0 -106 22 -114 302 -114 l254 0 13 -69
c13 -74 97 -157 149 -147 50 10 112 135 87 176 -20 31 -10 36 97 46 66 5 133
21 149 35 23 19 43 17 97 -9 86 -41 150 -41 253 1 69 27 90 28 135 6 32 -15
161 -29 312 -35 l258 -9 -15 188 c-19 218 -19 249 -1 319 22 83 -81 143 -111
64z m-1239 -334 c0 -14 -22 -36 -50 -48 -58 -27 -63 -12 -19 52 32 45 69 43
69 -4z m840 -52 c22 -41 8 -50 -47 -28 -17 6 -26 24 -20 40 16 39 42 35 67
-12z m-871 -211 c39 -40 40 -69 2 -69 -32 0 -91 53 -91 81 0 30 54 22 89 -12z"/>
<path d="M2122 2603 c-14 -25 -17 -97 -9 -190 15 -181 -24 -235 -231 -325
-110 -48 -177 -126 -87 -101 19 5 77 15 127 22 94 13 149 54 198 149 l25 48
28 -67 c47 -112 137 -126 420 -68 241 50 292 72 313 135 25 77 17 80 -110 36
-109 -37 -111 -37 -173 2 -118 75 -53 131 128 111 102 -12 109 -1 39 65 -122
114 -301 23 -285 -145 l9 -95 -146 0 c-174 0 -164 -13 -185 238 -18 219 -28
247 -61 185z"/>
<path d="M6080 2551 c-16 -50 -17 -90 -1 -145 11 -42 21 -146 21 -231 0 -171
26 -201 61 -71 17 62 17 123 1 231 -12 81 -22 178 -22 216 0 89 -30 89 -60 0z"/>
<path d="M8701 2582 c-21 -40 -22 -86 -2 -250 13 -111 21 -220 18 -242 -14
-84 34 -56 50 30 27 138 -29 529 -66 462z"/>
<path d="M1773 2570 c-28 -73 74 -203 143 -181 29 9 50 -6 86 -58 54 -79 78
-89 78 -34 0 113 -275 357 -307 273z"/>
<path d="M3020 2538 c0 -78 106 -194 147 -160 28 23 83 -23 130 -108 20 -36
22 -34 22 21 1 77 -74 181 -183 254 -104 70 -116 69 -116 -7z"/>
<path d="M294 2553 c-8 -20 -14 -52 -14 -70 0 -19 -27 -50 -60 -70 -54 -32
-140 -161 -140 -210 0 -37 139 -37 173 0 40 45 59 34 73 -40 25 -122 28 -123
577 -123 414 0 512 5 567 31 60 29 75 29 159 0 51 -17 98 -31 104 -31 24 0
-11 224 -42 272 -48 73 -81 58 -177 -80 -36 -52 -38 -52 -305 -52 l-269 0 0
66 c0 101 -52 164 -71 86 -9 -35 -6 -73 8 -95 13 -20 23 -41 23 -47 0 -6 -115
-9 -255 -6 l-255 6 -34 170 c-19 94 -37 184 -41 200 -5 24 -9 22 -21 -7z m6
-213 c0 -32 -13 -40 -65 -39 l-65 0 47 40 c60 50 83 49 83 -1z m1340 -110 c14
-17 21 -35 16 -41 -18 -18 -76 15 -76 43 0 37 29 36 60 -2z"/>
<path d="M827 1969 c-7 -18 -26 -26 -48 -19 -60 19 -92 -62 -36 -91 35 -19 46
-18 61 10 12 20 33 28 56 21 46 -15 79 66 37 92 -39 25 -57 22 -70 -13z"/>
<path d="M3088 1893 c-5 -15 -7 -40 -4 -55 5 -24 -222 -29 -1499 -33 l-1505
-5 0 -50 0 -50 4370 0 4370 0 0 50 0 50 -2854 0 c-2513 0 -2849 4 -2815 29 39
29 39 30 0 30 -38 1 -38 1 0 30 38 29 38 30 -7 30 -25 1 -50 -11 -56 -26z"/>
<path d="M0 1460 l0 -120 4500 0 4500 0 0 120 0 120 -4500 0 -4500 0 0 -120z"/>
</g>
</svg>
